<svg width="87" height="54" viewBox="0 0 87 54" fill="none" xmlns="http://www.w3.org/2000/svg">
<path d="M0.5 19.403C0.5 8.68701 9.18701 0 19.903 0H67.097C77.813 0 86.5 8.68701 86.5 19.403C86.5 30.119 77.813 38.806 67.097 38.806H65.2164C58.1297 38.806 51.5078 42.3332 47.5537 48.2143L44 53.5L41.1038 48.971C37.0539 42.6379 30.0551 38.806 22.5377 38.806H19.903C9.18701 38.806 0.5 30.119 0.5 19.403Z" fill="url(#paint0_linear_318_31)" style="mix-blend-mode:lighten"/>
<path d="M26.6257 28.2486C25.3059 28.2486 24.134 28.0266 23.1101 27.5827C22.0921 27.1388 21.2931 26.5322 20.7131 25.7628C20.139 24.9875 19.8549 24.1085 19.8608 23.1261C19.8549 22.3626 20.0206 21.6612 20.358 21.022C20.6953 20.3828 21.151 19.8501 21.7251 19.424C22.3052 18.992 22.9503 18.7167 23.6605 18.5984V18.4741C22.7254 18.2669 21.9678 17.7905 21.3878 17.0447C20.8137 16.2931 20.5296 15.426 20.5355 14.4435C20.5296 13.5084 20.79 12.6739 21.3168 11.94C21.8435 11.2061 22.5656 10.629 23.483 10.2088C24.4003 9.78267 25.4479 9.5696 26.6257 9.5696C27.7917 9.5696 28.8304 9.78267 29.7418 10.2088C30.6592 10.629 31.3813 11.2061 31.908 11.94C32.4407 12.6739 32.707 13.5084 32.707 14.4435C32.707 15.426 32.4141 16.2931 31.8281 17.0447C31.2481 17.7905 30.4994 18.2669 29.582 18.4741V18.5984C30.2923 18.7167 30.9315 18.992 31.4996 19.424C32.0737 19.8501 32.5295 20.3828 32.8668 21.022C33.2101 21.6612 33.3817 22.3626 33.3817 23.1261C33.3817 24.1085 33.0917 24.9875 32.5117 25.7628C31.9317 26.5322 31.1327 27.1388 30.1147 27.5827C29.1026 28.0266 27.9396 28.2486 26.6257 28.2486ZM26.6257 25.7095C27.3063 25.7095 27.8982 25.5941 28.4013 25.3633C28.9044 25.1265 29.295 24.7951 29.5732 24.369C29.8513 23.9428 29.9934 23.4516 29.9993 22.8952C29.9934 22.3152 29.8424 21.8033 29.5465 21.3594C29.2565 20.9096 28.857 20.5574 28.348 20.3029C27.8449 20.0484 27.2708 19.9212 26.6257 19.9212C25.9747 19.9212 25.3947 20.0484 24.8857 20.3029C24.3767 20.5574 23.9742 20.9096 23.6783 21.3594C23.3883 21.8033 23.2462 22.3152 23.2521 22.8952C23.2462 23.4516 23.3823 23.9428 23.6605 24.369C23.9387 24.7892 24.3293 25.1177 24.8324 25.3544C25.3414 25.5911 25.9392 25.7095 26.6257 25.7095ZM26.6257 17.4265C27.1821 17.4265 27.6733 17.314 28.0994 17.0891C28.5315 16.8642 28.8718 16.5505 29.1204 16.1481C29.369 15.7456 29.4962 15.281 29.5021 14.7543C29.4962 14.2334 29.3719 13.7777 29.1293 13.3871C28.8866 12.9905 28.5492 12.6857 28.1172 12.4727C27.6851 12.2537 27.188 12.1442 26.6257 12.1442C26.0516 12.1442 25.5456 12.2537 25.1076 12.4727C24.6755 12.6857 24.3382 12.9905 24.0955 13.3871C23.8588 13.7777 23.7434 14.2334 23.7493 14.7543C23.7434 15.281 23.8617 15.7456 24.1044 16.1481C24.353 16.5446 24.6933 16.8583 25.1254 17.0891C25.5633 17.314 26.0634 17.4265 26.6257 17.4265Z" fill="white"/>
<path d="M43.0209 28.3462C41.559 28.3462 40.3042 27.9763 39.2567 27.2365C38.215 26.4908 37.413 25.4165 36.8508 24.0138C36.2944 22.6052 36.0162 20.9096 36.0162 18.9268C36.0222 16.9441 36.3033 15.2573 36.8596 13.8665C37.4219 12.4697 38.2239 11.4044 39.2655 10.6705C40.3131 9.93655 41.5649 9.5696 43.0209 9.5696C44.4768 9.5696 45.7286 9.93655 46.7762 10.6705C47.8238 11.4044 48.6257 12.4697 49.1821 13.8665C49.7443 15.2633 50.0255 16.95 50.0255 18.9268C50.0255 20.9155 49.7443 22.6141 49.1821 24.0227C48.6257 25.4254 47.8238 26.4967 46.7762 27.2365C45.7345 27.9763 44.4827 28.3462 43.0209 28.3462ZM43.0209 25.5675C44.1572 25.5675 45.0539 25.0082 45.7108 23.8896C46.3737 22.765 46.7052 21.1108 46.7052 18.9268C46.7052 17.4827 46.5542 16.2694 46.2524 15.2869C45.9506 14.3044 45.5244 13.5646 44.974 13.0675C44.4236 12.5644 43.7725 12.3129 43.0209 12.3129C41.8904 12.3129 40.9967 12.8751 40.3398 13.9996C39.6828 15.1183 39.3514 16.7607 39.3454 18.9268C39.3395 20.3769 39.4845 21.5961 39.7805 22.5845C40.0823 23.5729 40.5084 24.3187 41.0589 24.8217C41.6093 25.3189 42.2633 25.5675 43.0209 25.5675Z" fill="white"/>
<path d="M62.6964 24.5909V23.6321C62.6964 22.9278 62.8443 22.2797 63.1403 21.6879C63.4421 21.096 63.8801 20.6196 64.4542 20.2585C65.0283 19.8975 65.7237 19.717 66.5405 19.717C67.3809 19.717 68.0852 19.8975 68.6534 20.2585C69.2216 20.6136 69.6507 21.0871 69.9407 21.679C70.2366 22.2708 70.3846 22.9219 70.3846 23.6321V24.5909C70.3846 25.2952 70.2366 25.9433 69.9407 26.5352C69.6448 27.127 69.2098 27.6035 68.6357 27.9645C68.0675 28.3255 67.3691 28.506 66.5405 28.506C65.7119 28.506 65.0105 28.3255 64.4364 27.9645C63.8623 27.6035 63.4273 27.127 63.1314 26.5352C62.8414 25.9433 62.6964 25.2952 62.6964 24.5909ZM65.0135 23.6321V24.5909C65.0135 25.0585 65.1259 25.4876 65.3509 25.8782C65.5758 26.2688 65.9723 26.4641 66.5405 26.4641C67.1146 26.4641 67.5082 26.2718 67.7212 25.8871C67.9402 25.4964 68.0497 25.0644 68.0497 24.5909V23.6321C68.0497 23.1586 67.9461 22.7266 67.739 22.3359C67.5318 21.9394 67.1323 21.7411 66.5405 21.7411C65.9841 21.7411 65.5906 21.9394 65.3597 22.3359C65.1289 22.7266 65.0135 23.1586 65.0135 23.6321ZM53.4545 14.1861V13.2273C53.4545 12.517 53.6055 11.866 53.9073 11.2741C54.2092 10.6823 54.6471 10.2088 55.2212 9.85369C55.7953 9.49266 56.4908 9.31214 57.3075 9.31214C58.142 9.31214 58.8434 9.49266 59.4116 9.85369C59.9857 10.2088 60.4177 10.6823 60.7077 11.2741C60.9978 11.866 61.1428 12.517 61.1428 13.2273V14.1861C61.1428 14.8963 60.9948 15.5473 60.6989 16.1392C60.4089 16.7251 59.9768 17.1957 59.4027 17.5508C58.8286 17.9059 58.1302 18.0835 57.3075 18.0835C56.473 18.0835 55.7687 17.9059 55.1946 17.5508C54.6264 17.1957 54.1944 16.7222 53.8984 16.1303C53.6025 15.5385 53.4545 14.8904 53.4545 14.1861ZM55.7894 13.2273V14.1861C55.7894 14.6596 55.8989 15.0916 56.1179 15.4822C56.3428 15.867 56.7393 16.0593 57.3075 16.0593C57.8757 16.0593 58.2663 15.867 58.4794 15.4822C58.6984 15.0916 58.8079 14.6596 58.8079 14.1861V13.2273C58.8079 12.7538 58.7043 12.3217 58.4972 11.9311C58.29 11.5346 57.8935 11.3363 57.3075 11.3363C56.7453 11.3363 56.3517 11.5346 56.1268 11.9311C55.9019 12.3277 55.7894 12.7597 55.7894 13.2273ZM54.4666 28L66.9666 9.81818H69.1861L56.6861 28H54.4666Z" fill="white"/>
<defs>
<linearGradient id="paint0_linear_318_31" x1="8.5" y1="6" x2="78.7435" y2="23.4671" gradientUnits="userSpaceOnUse">
<stop stop-color="#1E2248"/>
<stop offset="1" stop-color="#02021A"/>
</linearGradient>
</defs>
</svg>
