<svg width="86" height="54" viewBox="0 0 86 54" fill="none" xmlns="http://www.w3.org/2000/svg">
<path d="M0 19.403C0 8.68701 8.68701 0 19.403 0H66.597C77.313 0 86 8.68701 86 19.403C86 30.119 77.313 38.806 66.597 38.806H64.7164C57.6297 38.806 51.0078 42.3332 47.0537 48.2143L43.5 53.5L40.6038 48.971C36.5539 42.6379 29.5551 38.806 22.0377 38.806H19.403C8.68701 38.806 0 30.119 0 19.403Z" fill="url(#paint0_linear_318_30)" style="mix-blend-mode:lighten"/>
<path d="M25.9382 9.5696C26.8082 9.57552 27.6545 9.7294 28.4772 10.0312C29.3058 10.3272 30.0516 10.8125 30.7144 11.4872C31.3773 12.156 31.9041 13.0527 32.2947 14.1772C32.6853 15.3017 32.8806 16.6926 32.8806 18.3498C32.8866 19.9123 32.7208 21.3091 32.3835 22.5401C32.052 23.7653 31.5756 24.801 30.9541 25.6474C30.3327 26.4937 29.584 27.1388 28.7081 27.5827C27.8321 28.0266 26.8467 28.2486 25.7517 28.2486C24.6035 28.2486 23.5855 28.0237 22.6978 27.5739C21.8159 27.1241 21.1027 26.5085 20.5582 25.7273C20.0137 24.946 19.6793 24.0523 19.555 23.0462H22.7954C22.9611 23.7682 23.2985 24.3423 23.8075 24.7685C24.3224 25.1887 24.9705 25.3988 25.7517 25.3988C27.0124 25.3988 27.983 24.8513 28.6637 23.7564C29.3443 22.6615 29.6846 21.1404 29.6846 19.1932H29.5603C29.2703 19.714 28.8945 20.1638 28.4328 20.5426C27.9712 20.9155 27.4474 21.2025 26.8615 21.4038C26.2814 21.605 25.6659 21.7056 25.0149 21.7056C23.9495 21.7056 22.9907 21.4511 22.1385 20.9421C21.2921 20.4331 20.6203 19.7347 20.1232 18.8469C19.6319 17.9592 19.3834 16.9441 19.3774 15.8018C19.3774 14.6181 19.6497 13.5558 20.1942 12.6147C20.7446 11.6677 21.5111 10.922 22.4936 10.3775C23.476 9.82706 24.6242 9.55776 25.9382 9.5696ZM25.947 12.233C25.3078 12.233 24.7308 12.3898 24.2159 12.7035C23.7069 13.0112 23.3044 13.4315 23.0085 13.9641C22.7185 14.4909 22.5735 15.0798 22.5735 15.7308C22.5794 16.3759 22.7244 16.9619 23.0085 17.4886C23.2985 18.0154 23.6921 18.4326 24.1892 18.7404C24.6923 19.0482 25.2664 19.2021 25.9115 19.2021C26.3909 19.2021 26.8378 19.1103 27.2521 18.9268C27.6664 18.7434 28.0274 18.4889 28.3352 18.1634C28.6489 17.8319 28.8915 17.4561 29.0632 17.0359C29.2407 16.6156 29.3265 16.1718 29.3206 15.7042C29.3206 15.0827 29.1727 14.5086 28.8767 13.9819C28.5867 13.4551 28.1872 13.032 27.6782 12.7124C27.1751 12.3928 26.5981 12.233 25.947 12.233Z" fill="white"/>
<path d="M42.5575 28.3462C41.0956 28.3462 39.8409 27.9763 38.7933 27.2365C37.7516 26.4908 36.9496 25.4165 36.3874 24.0138C35.831 22.6052 35.5529 20.9096 35.5529 18.9268C35.5588 16.9441 35.8399 15.2573 36.3963 13.8665C36.9585 12.4697 37.7605 11.4044 38.8022 10.6705C39.8497 9.93655 41.1015 9.5696 42.5575 9.5696C44.0134 9.5696 45.2652 9.93655 46.3128 10.6705C47.3604 11.4044 48.1624 12.4697 48.7187 13.8665C49.281 15.2633 49.5621 16.95 49.5621 18.9268C49.5621 20.9155 49.281 22.6141 48.7187 24.0227C48.1624 25.4254 47.3604 26.4967 46.3128 27.2365C45.2711 27.9763 44.0194 28.3462 42.5575 28.3462ZM42.5575 25.5675C43.6938 25.5675 44.5905 25.0082 45.2475 23.8896C45.9103 22.765 46.2418 21.1108 46.2418 18.9268C46.2418 17.4827 46.0909 16.2694 45.789 15.2869C45.4872 14.3044 45.061 13.5646 44.5106 13.0675C43.9602 12.5644 43.3091 12.3129 42.5575 12.3129C41.427 12.3129 40.5333 12.8751 39.8764 13.9996C39.2194 15.1183 38.888 16.7607 38.8821 18.9268C38.8761 20.3769 39.0211 21.5961 39.3171 22.5845C39.6189 23.5729 40.0451 24.3187 40.5955 24.8217C41.1459 25.3189 41.7999 25.5675 42.5575 25.5675Z" fill="white"/>
<path d="M62.233 24.5909V23.6321C62.233 22.9278 62.381 22.2797 62.6769 21.6879C62.9787 21.096 63.4167 20.6196 63.9908 20.2585C64.5649 19.8975 65.2603 19.717 66.0771 19.717C66.9175 19.717 67.6219 19.8975 68.19 20.2585C68.7582 20.6136 69.1873 21.0871 69.4773 21.679C69.7732 22.2708 69.9212 22.9219 69.9212 23.6321V24.5909C69.9212 25.2952 69.7732 25.9433 69.4773 26.5352C69.1814 27.127 68.7464 27.6035 68.1723 27.9645C67.6041 28.3255 66.9057 28.506 66.0771 28.506C65.2485 28.506 64.5472 28.3255 63.9731 27.9645C63.399 27.6035 62.9639 27.127 62.668 26.5352C62.378 25.9433 62.233 25.2952 62.233 24.5909ZM64.5501 23.6321V24.5909C64.5501 25.0585 64.6626 25.4876 64.8875 25.8782C65.1124 26.2688 65.5089 26.4641 66.0771 26.4641C66.6512 26.4641 67.0448 26.2718 67.2579 25.8871C67.4768 25.4964 67.5863 25.0644 67.5863 24.5909V23.6321C67.5863 23.1586 67.4828 22.7266 67.2756 22.3359C67.0685 21.9394 66.669 21.7411 66.0771 21.7411C65.5208 21.7411 65.1272 21.9394 64.8964 22.3359C64.6655 22.7266 64.5501 23.1586 64.5501 23.6321ZM52.9912 14.1861V13.2273C52.9912 12.517 53.1421 11.866 53.4439 11.2741C53.7458 10.6823 54.1838 10.2088 54.7579 9.85369C55.332 9.49266 56.0274 9.31214 56.8442 9.31214C57.6787 9.31214 58.38 9.49266 58.9482 9.85369C59.5223 10.2088 59.9544 10.6823 60.2444 11.2741C60.5344 11.866 60.6794 12.517 60.6794 13.2273V14.1861C60.6794 14.8963 60.5314 15.5473 60.2355 16.1392C59.9455 16.7251 59.5134 17.1957 58.9393 17.5508C58.3652 17.9059 57.6668 18.0835 56.8442 18.0835C56.0096 18.0835 55.3053 17.9059 54.7312 17.5508C54.163 17.1957 53.731 16.7222 53.4351 16.1303C53.1391 15.5385 52.9912 14.8904 52.9912 14.1861ZM55.326 13.2273V14.1861C55.326 14.6596 55.4355 15.0916 55.6545 15.4822C55.8794 15.867 56.276 16.0593 56.8442 16.0593C57.4123 16.0593 57.803 15.867 58.016 15.4822C58.235 15.0916 58.3445 14.6596 58.3445 14.1861V13.2273C58.3445 12.7538 58.2409 12.3217 58.0338 11.9311C57.8266 11.5346 57.4301 11.3363 56.8442 11.3363C56.2819 11.3363 55.8883 11.5346 55.6634 11.9311C55.4385 12.3277 55.326 12.7597 55.326 13.2273ZM54.0032 28L66.5032 9.81818H68.7227L56.2227 28H54.0032Z" fill="white"/>
<defs>
<linearGradient id="paint0_linear_318_30" x1="8" y1="6" x2="78.2435" y2="23.4671" gradientUnits="userSpaceOnUse">
<stop stop-color="#1E2248"/>
<stop offset="1" stop-color="#02021A"/>
</linearGradient>
</defs>
</svg>
