<svg width="86" height="54" viewBox="0 0 86 54" fill="none" xmlns="http://www.w3.org/2000/svg">
<path d="M0 19.403C0 8.68701 8.68701 0 19.403 0H66.597C77.313 0 86 8.68701 86 19.403C86 30.119 77.313 38.806 66.597 38.806H64.7164C57.6297 38.806 51.0078 42.3332 47.0537 48.2143L43.5 53.5L40.6038 48.971C36.5539 42.6379 29.5551 38.806 22.0377 38.806H19.403C8.68701 38.806 0 30.119 0 19.403Z" fill="url(#paint0_linear_318_32)" style="mix-blend-mode:lighten"/>
<path d="M21.2562 28L28.9888 12.6946V12.5703H20.0133V9.81818H32.3979V12.6325L24.6742 28H21.2562Z" fill="white"/>
<path d="M41.5931 28.3462C40.1312 28.3462 38.8765 27.9763 37.8289 27.2365C36.7873 26.4908 35.9853 25.4165 35.423 24.0138C34.8667 22.6052 34.5885 20.9096 34.5885 18.9268C34.5944 16.9441 34.8756 15.2573 35.4319 13.8665C35.9942 12.4697 36.7961 11.4044 37.8378 10.6705C38.8854 9.93655 40.1372 9.5696 41.5931 9.5696C43.0491 9.5696 44.3009 9.93655 45.3485 10.6705C46.396 11.4044 47.198 12.4697 47.7543 13.8665C48.3166 15.2633 48.5977 16.95 48.5977 18.9268C48.5977 20.9155 48.3166 22.6141 47.7543 24.0227C47.198 25.4254 46.396 26.4967 45.3485 27.2365C44.3068 27.9763 43.055 28.3462 41.5931 28.3462ZM41.5931 25.5675C42.7295 25.5675 43.6262 25.0082 44.2831 23.8896C44.946 22.765 45.2774 21.1108 45.2774 18.9268C45.2774 17.4827 45.1265 16.2694 44.8247 15.2869C44.5228 14.3044 44.0967 13.5646 43.5463 13.0675C42.9958 12.5644 42.3448 12.3129 41.5931 12.3129C40.4627 12.3129 39.569 12.8751 38.912 13.9996C38.2551 15.1183 37.9236 16.7607 37.9177 18.9268C37.9118 20.3769 38.0568 21.5961 38.3527 22.5845C38.6546 23.5729 39.0807 24.3187 39.6311 24.8217C40.1816 25.3189 40.8356 25.5675 41.5931 25.5675Z" fill="white"/>
<path d="M61.2686 24.5909V23.6321C61.2686 22.9278 61.4166 22.2797 61.7125 21.6879C62.0144 21.096 62.4524 20.6196 63.0265 20.2585C63.6006 19.8975 64.296 19.717 65.1127 19.717C65.9532 19.717 66.6575 19.8975 67.2257 20.2585C67.7939 20.6136 68.223 21.0871 68.513 21.679C68.8089 22.2708 68.9569 22.9219 68.9569 23.6321V24.5909C68.9569 25.2952 68.8089 25.9433 68.513 26.5352C68.217 27.127 67.782 27.6035 67.2079 27.9645C66.6397 28.3255 65.9413 28.506 65.1127 28.506C64.2841 28.506 63.5828 28.3255 63.0087 27.9645C62.4346 27.6035 61.9996 27.127 61.7037 26.5352C61.4136 25.9433 61.2686 25.2952 61.2686 24.5909ZM63.5858 23.6321V24.5909C63.5858 25.0585 63.6982 25.4876 63.9231 25.8782C64.148 26.2688 64.5446 26.4641 65.1127 26.4641C65.6868 26.4641 66.0804 26.2718 66.2935 25.8871C66.5125 25.4964 66.622 25.0644 66.622 24.5909V23.6321C66.622 23.1586 66.5184 22.7266 66.3113 22.3359C66.1041 21.9394 65.7046 21.7411 65.1127 21.7411C64.5564 21.7411 64.1628 21.9394 63.932 22.3359C63.7012 22.7266 63.5858 23.1586 63.5858 23.6321ZM52.0268 14.1861V13.2273C52.0268 12.517 52.1777 11.866 52.4796 11.2741C52.7814 10.6823 53.2194 10.2088 53.7935 9.85369C54.3676 9.49266 55.063 9.31214 55.8798 9.31214C56.7143 9.31214 57.4157 9.49266 57.9838 9.85369C58.5579 10.2088 58.99 10.6823 59.28 11.2741C59.57 11.866 59.715 12.517 59.715 13.2273V14.1861C59.715 14.8963 59.5671 15.5473 59.2711 16.1392C58.9811 16.7251 58.5491 17.1957 57.975 17.5508C57.4009 17.9059 56.7025 18.0835 55.8798 18.0835C55.0453 18.0835 54.341 17.9059 53.7669 17.5508C53.1987 17.1957 52.7666 16.7222 52.4707 16.1303C52.1748 15.5385 52.0268 14.8904 52.0268 14.1861ZM54.3617 13.2273V14.1861C54.3617 14.6596 54.4712 15.0916 54.6902 15.4822C54.9151 15.867 55.3116 16.0593 55.8798 16.0593C56.448 16.0593 56.8386 15.867 57.0517 15.4822C57.2707 15.0916 57.3801 14.6596 57.3801 14.1861V13.2273C57.3801 12.7538 57.2766 12.3217 57.0694 11.9311C56.8623 11.5346 56.4657 11.3363 55.8798 11.3363C55.3175 11.3363 54.9239 11.5346 54.699 11.9311C54.4741 12.3277 54.3617 12.7597 54.3617 13.2273ZM53.0389 28L65.5389 9.81818H67.7583L55.2583 28H53.0389Z" fill="white"/>
<defs>
<linearGradient id="paint0_linear_318_32" x1="8" y1="6" x2="78.2435" y2="23.4671" gradientUnits="userSpaceOnUse">
<stop stop-color="#1E2248"/>
<stop offset="1" stop-color="#02021A"/>
</linearGradient>
</defs>
</svg>
